<?xml version="1.0" encoding="UTF-8" standalone="no"?>
<svg width="20" height="20" viewBox="0 0 46 46" xmlns="http://www.w3.org/2000/svg">
  <g id="Google-Button" stroke="none" stroke-width="1" fill="none" fill-rule="evenodd">
    <g id="Google-Icon" transform="translate(-15, -15)">
      <path d="M31.64,23.20 C31.64,22.57 31.58,21.95 31.45,21.36 L23,21.36 L23,25.70 L27.84,25.70 C27.64,26.97 26.89,28.07 25.74,28.79 L25.74,31.34 L28.80,31.34 C30.68,29.57 31.64,26.62 31.64,23.20 Z" id="Shape-1" fill="#4285F4"/>
      <path d="M23,32 C25.60,32 27.81,31.10 29.36,29.68 L26.29,27.14 C25.43,27.73 24.32,28.09 23,28.09 C20.46,28.09 18.33,26.39 17.62,24.10 L14.46,24.10 L14.46,26.73 C16.00,29.91 19.26,32 23,32 Z" id="Shape-2" fill="#34A853"/>
      <path d="M17.62,24.10 C17.45,23.51 17.36,22.87 17.36,22.21 C17.36,21.55 17.45,20.91 17.62,20.32 L17.62,17.69 L14.46,17.69 C13.88,18.95 13.56,20.36 13.56,21.83 C13.56,23.30 13.88,24.71 14.46,25.97 L17.62,24.10 Z" id="Shape-3" fill="#FBBC05"/>
      <path d="M23,16.33 C24.52,16.33 25.90,16.86 26.98,17.89 L29.69,15.18 C27.81,13.44 25.60,12.40 23,12.40 C19.26,12.40 16.00,14.49 14.46,17.67 L17.62,20.30 C18.33,18.01 20.46,16.33 23,16.33 Z" id="Shape-4" fill="#EA4335"/>
    </g>
  </g>
</svg>